<svg xmlns="http://www.w3.org/2000/svg" width="99.119" height="73.46" viewBox="0 0 99.119 73.46">
  <g id="country_b" transform="translate(0 -66.27)">
    <path id="路径_18048" data-name="路径 18048" d="M241,391.73h5.808v10.454H241Z" transform="translate(-194.345 -262.454)" fill="#3d9689"/>
    <path id="路径_18049" data-name="路径 18049" d="M242.9,189.6a2.9,2.9,0,1,0-2.9-2.9A2.907,2.907,0,0,0,242.9,189.6Z" transform="translate(-193.538 -94.784)" fill="#3d9689"/>
    <path id="路径_18050" data-name="路径 18050" d="M158.849,88.988,161.822,84,132.071,66.27,102.32,84l2.974,4.991c2.663-1.589,6.307-3.757,8.967-5.343V139.73h9.1V123.468h17.423V139.73h9.1V83.645C152.541,85.231,156.187,87.4,158.849,88.988Zm-35.683,2.925a8.722,8.722,0,0,1,8.712-8.712c11.557.479,11.554,16.946,0,17.423A8.722,8.722,0,0,1,123.166,91.913Zm17.617,23.037H123.359v-5.808h17.423Z" transform="translate(-82.512)" fill="#3d9689"/>
    <path id="路径_18051" data-name="路径 18051" d="M0,248.538H4.84v33.491h21.1v-39.3H0Zm19.746,18.778H13.939v-12.39h5.808Z" transform="translate(0 -142.299)" fill="#3d9689"/>
    <path id="路径_18052" data-name="路径 18052" d="M403.941,242.73H378v39.3h21.1V248.538h4.84ZM390,267.316h-5.808v-12.39H390Z" transform="translate(-304.823 -142.299)" fill="#3d9689"/>
  </g>
</svg>
