<svg xmlns="http://www.w3.org/2000/svg" width="26" height="33.86" viewBox="0 0 26 33.86">
  <g id="PDF" transform="translate(-6.5)">
    <path id="路径_1987" data-name="路径 1987" d="M24.933,0H7.385C6.9,0,6.5.4,6.5,1.165V33.256a.911.911,0,0,0,.885.6H31.615a.911.911,0,0,0,.885-.6V7.847c0-.421-.056-.556-.155-.656L25.309.155A.534.534,0,0,0,24.933,0Z" fill="#fff"/>
    <path id="路径_1988" data-name="路径 1988" d="M37.5.151V7.316h7.165Z" transform="translate(-12.256 -0.06)" fill="#d9d7ca"/>
    <path id="路径_1989" data-name="路径 1989" d="M18.685,22.88h0a.971.971,0,0,1-.585-.2,1.449,1.449,0,0,1-.674-1.356c.11-.984,1.327-2.015,3.619-3.064a40.588,40.588,0,0,0,2.29-6.5c-.6-1.313-1.19-3.017-.762-4.017a1.16,1.16,0,0,1,.686-.735,2.969,2.969,0,0,1,.614-.1c.3,0,.573.392.762.634s.583.709-.226,4.113a19.321,19.321,0,0,0,3.076,4.572,11.764,11.764,0,0,1,2.03-.216c.947,0,1.521.221,1.755.675a1.224,1.224,0,0,1-.236,1.306,1.607,1.607,0,0,1-1.342.72,4.02,4.02,0,0,1-2.546-1.382,28.972,28.972,0,0,0-5.338,1.706,17.156,17.156,0,0,1-1.441,2.57C19.749,22.475,19.215,22.88,18.685,22.88Zm1.61-3.1C19,20.507,18.476,21.1,18.438,21.44c-.006.056-.022.2.261.418C18.789,21.83,19.315,21.59,20.3,19.781ZM28.541,17.1c.493.379.613.571.935.571a.912.912,0,0,0,.732-.267.957.957,0,0,0,.139-.251c-.074-.039-.173-.119-.71-.119A8.841,8.841,0,0,0,28.541,17.1Zm-4.517-3.98a43.107,43.107,0,0,1-1.617,4.574,30.211,30.211,0,0,1,3.928-1.221A20.7,20.7,0,0,1,24.024,13.115ZM23.657,8a1.45,1.45,0,0,0,.058,1.945C24.289,8.665,23.683,7.99,23.657,8Z" transform="translate(-4.317 -2.731)" fill="#d60002"/>
    <path id="路径_1990" data-name="路径 1990" d="M31.615,49.279H7.385a.885.885,0,0,1-.885-.885V39h26v9.394A.885.885,0,0,1,31.615,49.279Z" transform="translate(0 -15.419)" fill="#d60002"/>
    <g id="组_1614" data-name="组 1614" transform="translate(12.089 25.954)">
      <path id="路径_1991" data-name="路径 1991" d="M16.736,49.016h-.992V42.924H17.5a2.46,2.46,0,0,1,.769.124,2.09,2.09,0,0,1,.682.372,1.942,1.942,0,0,1,.488.6,1.66,1.66,0,0,1,.186.79,2.16,2.16,0,0,1-.157.839,1.754,1.754,0,0,1-.438.632,1.975,1.975,0,0,1-.678.4,2.608,2.608,0,0,1-.876.14h-.736v2.2Zm0-5.34V46.09h.909a1.08,1.08,0,0,0,.36-.062.906.906,0,0,0,.327-.2.99.99,0,0,0,.239-.392,1.859,1.859,0,0,0,.091-.624,1.688,1.688,0,0,0-.041-.343.99.99,0,0,0-.169-.372,1,1,0,0,0-.36-.3,1.337,1.337,0,0,0-.612-.12h-.744Z" transform="translate(-15.744 -42.924)" fill="#fff"/>
      <path id="路径_1992" data-name="路径 1992" d="M29,45.8a4.476,4.476,0,0,1-.161,1.285,3.2,3.2,0,0,1-.409.893,2.1,2.1,0,0,1-.558.567,2.8,2.8,0,0,1-.6.31,2.476,2.476,0,0,1-.529.132,3.523,3.523,0,0,1-.356.028H24.084V42.924h1.835a3.487,3.487,0,0,1,1.351.244,2.806,2.806,0,0,1,.967.649,2.663,2.663,0,0,1,.574.921A3.052,3.052,0,0,1,29,45.8ZM26.06,48.289a1.642,1.642,0,0,0,1.455-.645,3.272,3.272,0,0,0,.446-1.868,3.164,3.164,0,0,0-.091-.752,1.609,1.609,0,0,0-.351-.674,1.854,1.854,0,0,0-.707-.488,3.044,3.044,0,0,0-1.157-.186h-.579v4.613h.984Z" transform="translate(-19.041 -42.924)" fill="#fff"/>
      <path id="路径_1993" data-name="路径 1993" d="M35.607,43.676v1.918h2.546v.678H35.607v2.745H34.6V42.924h3.811v.752Z" transform="translate(-23.198 -42.924)" fill="#fff"/>
    </g>
  </g>
</svg>
