<svg xmlns="http://www.w3.org/2000/svg" viewBox="0 0 432.89 637.38"><defs><style>.a{fill:#fff;}</style></defs><path class="a" d="M.44,0h330.3V8.17q0,39.54,0,79.09c0,10.77,4.08,14.84,14.91,14.86q39.87.07,79.75,0h7.46v330c-2.42.12-4.76.35-7.09.35q-209,0-418,.14C1.67,432.64,0,431,0,424.89q.27-209,.15-418C.15,4.69.33,2.53.44,0ZM232.69,126.51l-.74-.23c-.28-4.63-.3-9.29-.89-13.88-1.17-9-11.7-21.14-18.42-21.58-11.62-.77-20.93,5.05-24.45,16.36a53.26,53.26,0,0,0-2.31,16.92c.43,17.82,7.3,34,13.76,50.23a22.54,22.54,0,0,1,.79,13.18A676.06,676.06,0,0,1,161.65,296c-1.38,3.07-4.42,5.86-7.38,7.67-13.91,8.55-28.47,16.1-42,25.21-9.77,6.58-17.89,15.43-20.26,27.74-2.2,11.41,3.51,19.71,12,26.22,7.62,5.82,15.85,5.3,23.4-.17,4.79-3.47,10-7.16,13.12-12,10.71-16.46,20.5-33.51,30.87-50.19,1.63-2.61,4.07-5.38,6.78-6.53a519.21,519.21,0,0,1,91.57-28.85,11,11,0,0,1,7.63,1.83c6.93,4.72,13.21,10.44,20.3,14.88,20.91,13.09,40.84,9.27,51.7-9.44,8.36-14.4,3.11-26.76-13.17-30.72s-32.56-1.69-48.74.91c-4.87.78-8-.19-11.44-4-20.53-23.19-37.27-48.88-51.32-76.38a13.79,13.79,0,0,1-.89-8.13C226.62,158.18,229.71,142.35,232.69,126.51Zm200.2,329.42V637.38H.77V455.93ZM171.2,546.75c0,18.15-.07,36.31,0,54.46.05,8.94,4,13.22,12.72,13.63,16.2.78,31.51-1.8,45.89-10.25,33.6-19.74,42.84-68.68,18.56-99.1-16.08-20.15-36.93-28.53-62.31-27.33-11,.52-14.85,3.95-14.87,14.78C171.17,510.88,171.2,528.81,171.2,546.75ZM68.72,568.89c9.33,0,17.72.38,26.06-.07,23.41-1.26,41.84-21.09,42-44.79.18-23.92-18.41-44.29-42-45.5-11-.56-22.12-.28-33.19-.29-12.23,0-15.64,3.46-15.65,15.86q0,52.46,0,104.92a33.8,33.8,0,0,0,.39,6.61c1,5.09,4.25,8.17,9.46,8.79,5.48.67,9.64-1.58,11.63-6.69a24.57,24.57,0,0,0,1.24-8.44C68.81,589.57,68.72,579.85,68.72,568.89ZM319.23,501h8.06c15.71,0,31.43.14,47.14-.06,9.67-.13,15.24-7.13,12.37-15.05-2.12-5.87-6.75-7.67-12.58-7.66-20.8.06-41.61,0-62.41,0-11.61,0-15.39,3.86-15.4,15.65q0,52.46,0,104.91a28.62,28.62,0,0,0,.91,7.84c1.62,5.66,5.76,8.31,11.5,7.84s9.4-3.81,10-9.66a118.49,118.49,0,0,0,.32-11.93c0-11.44,0-22.89,0-34.9h51.9a40.65,40.65,0,0,0,5.3-.17c6.84-.91,11.46-5.83,11.19-11.75-.29-6.14-4.94-10.67-12-10.77-16.82-.24-33.64-.11-50.46-.15-2.82,0-6,.65-5.91-4C319.32,521.46,319.23,511.75,319.23,501ZM413.93,78.8,353.69,18.57V78.8ZM186.15,289.64l70.9-22c-13.91-20-27.88-40.07-41.62-59.8C205.87,234.56,196.09,261.9,186.15,289.64ZM141.92,330c-9.33,7.83-19.08,15.23-27.85,23.64-5.61,5.38-4.48,9.48,2.21,14.14,12.7-9.11,19.55-22.77,27.49-35.6C143.15,331.45,142.53,330.73,141.92,330Zm67.51-184.38c6.57-11.57,6.3-25.52-.65-33.69A23.35,23.35,0,0,0,209.43,145.62Zm124.12,134H301.74C313.87,293.43,328.82,293.64,333.55,279.66ZM194.27,591.2c23.07,1.71,44-18.41,45-42.91a44.86,44.86,0,0,0-45-46.94ZM69.15,546.15c1.7.1,3,.24,4.28.24,6.62,0,13.26.21,19.86-.18a22.41,22.41,0,0,0,20.8-21.8c.31-11.81-8.39-22.28-20-23.16-8.09-.61-16.26-.11-24.89-.11Z"/></svg>