<svg id="country_c" xmlns="http://www.w3.org/2000/svg" xmlns:xlink="http://www.w3.org/1999/xlink" width="65.788" height="50" viewBox="0 0 65.788 50">
  <defs>
    <clipPath id="clip-path">
      <rect id="矩形_2195" data-name="矩形 2195" width="65.788" height="50" fill="#3d9689"/>
    </clipPath>
  </defs>
  <g id="组_7967" data-name="组 7967" clip-path="url(#clip-path)">
    <path id="路径_18200" data-name="路径 18200" d="M65.754,48.41H64.63V46.924a.034.034,0,0,0-.034-.034H63.428V45.4a.034.034,0,0,0-.034-.034H61.371V10.611a.718.718,0,0,0-.717-.717H49.565L33.3.114a.79.79,0,0,0-.819,0L16.224,9.894H5.135a.718.718,0,0,0-.718.717V45.369H2.4a.034.034,0,0,0-.034.034V46.89H1.192a.034.034,0,0,0-.034.034V48.41H.034A.034.034,0,0,0,0,48.445v1.521A.034.034,0,0,0,.034,50h65.72a.034.034,0,0,0,.034-.034V48.445a.034.034,0,0,0-.034-.034m-32.859-42a2.213,2.213,0,1,1-2.213,2.213,2.216,2.216,0,0,1,2.213-2.213M19.812,35.864H17.5V29.787h2.312Zm0-9.884H17.5V19.9h2.312ZM35.27,45.369H30.45v-5.32a2.224,2.224,0,0,1,2.445-2.375,2.172,2.172,0,0,1,2.375,2.375Zm-1.219-9.5H31.738V29.787h2.312ZM31.738,19.9h2.312V25.98H31.738Zm16.55,15.962H45.976V29.787h2.312Zm0-9.884H45.976V19.9h2.312ZM55.513,17.1a.22.22,0,0,1-.22.22l-.526,0c0,.027,0,.053,0,.053s.008,26.433.007,26.463h.52a.22.22,0,0,1,.22.22v1.317H51.537V44.053a.22.22,0,0,1,.22-.22l.526,0c0-.015,0-26.484,0-26.509l-.524,0a.22.22,0,0,1-.22-.22V15.783h-8.81V17.1a.221.221,0,0,1-.22.22h-.522c0,.023,0,26.5,0,26.513h.524a.22.22,0,0,1,.22.22v1.317H38.751V44.053a.22.22,0,0,1,.22-.22H39.5c0-.025,0-26.495,0-26.512l-.527,0a.22.22,0,0,1-.22-.22V15.783H27.037V17.1a.22.22,0,0,1-.22.22h-.524c0,.029,0,26.492,0,26.511l.524,0a.22.22,0,0,1,.22.22v1.317H23.061V44.053a.22.22,0,0,1,.22-.22h.527c0-.024,0-26.479,0-26.514h-.527a.22.22,0,0,1-.22-.22V15.783H14.243V17.1a.211.211,0,0,1-.211.211H13.5c0,.029,0,26.505,0,26.529h.531a.211.211,0,0,1,.211.211v1.317H10.284V44.053a.211.211,0,0,1,.211-.211h.531c0-.03,0-26.5-.006-26.528H10.5a.211.211,0,0,1-.211-.211l-.009-3.538H55.524c0,.175-.011,3.538-.011,3.538" fill="#3d9689"/>
  </g>
</svg>
